PathFileType	4	(X/Y/Z)	C:/Users/beibeiliu/ov580/test_trc\sequence.30_training_dense_right.trc
DataRate	CameraRate	NumFrames	NumMarkers	Units	OrigDataRate	OrigDataStartFrame	OrigNumFrames
120	120	8	19	mm	120	59	88
Frame#	Time	ThumbCMC			ThumbMCP			ThumbIP			ThumbTip			IndexMCP			IndexPIP			IndexTip			MiddleMCP			MiddlePIP			MiddleTip			RingMCP			RingPIP			RingTip			PinkyMCP			PinkyPIP			PinkyTip			BackHand1			BackHand2			BackHand3	
		X0	Y0	Z0	X1	Y1	Z1	X2	Y2	Z2	X3	Y3	Z3	X4	Y4	Z4	X5	Y5	Z5	X6	Y6	Z6	X7	Y7	Z7	X8	Y8	Z8	X9	Y9	Z9	X10	Y10	Z10	X11	Y11	Z11	X12	Y12	Z12	X13	Y13	Z13	X14	Y14	Z14	X15	Y15	Z15	X16	Y16	Z16	X17	Y17	Z17	X18	Y18	Z18	
58	0.483333	107.068	66.5455	14.6778	95.187	89.908	11.3593	87.6458	106.868	0.691618	79.804	119.704	-7.73893	53.8201	69.8805	-21.9745	34.0477	82.7756	-29.5672	15.0392	91.763	-32.1756	39.4908	63.5369	-4.56549	21.4096	84.2432	12.3366	24.2577	103.525	35.1341	38.9403	58.3506	14.015	47.0425	71.7254	38.1334	72.3539	66.981	39.8598	37.4573	45.1077	29.5868	51.7263	60.9884	42.5618	77.3435	53.9506	38.3084	75.4279	23.2605	11.4232	100.141	15.6255	24.2237	100.797	38.2226	3.13512	
59	0.491667	104.889	55.7534	13.3895	101.68	82.3932	3.61914	90.2932	96.8216	-9.4861	92.5664	110.809	-17.338	59.1383	67.4487	-32.341	41.2133	78.7248	-39.7377	22.062	90.7393	-47.0507	38.332	69.6664	-12.7634	28.3383	93.642	-1.36237	32.896	110.393	20.0882	34.5484	63.887	8.61658	46.5664	79.2024	29.3845	68.9933	65.2918	35.9049	31.1165	52.2189	22.4139	46.6087	66.7773	36.7838	68.3153	54.9831	32.6219	62.2412	24.0673	7.33407	85.1435	10.5034	26.1991	92.5381	27.5509	3.86836	
60	0.5	104.628	48.6462	10.7265	97.5	70.8378	-2.80712	97.2973	86.807	-18.893	100.859	100.628	-30.9771	57.3701	56.9509	-42.2443	45.759	72.3919	-56.2732	32.6009	85.0045	-68.9049	42.7965	64.5212	-25.3378	37.4887	93.1387	-20.2511	41.712	114.508	7.20224	32.9733	68.7556	-1.91523	46.5377	81.4436	15.4306	65.9972	64.1407	26.7753	26.714	57.6691	13.164	47.5688	71.6331	21.6638	62.5092	55.4493	29.0476	52.9226	20.2357	6.53366	70.9942	8.96726	26.9383	82.6812	21.2876	0.808332	
61	0.508333	96.7929	44.068	6.3352	98.2608	66.611	-7.40748	96.4381	79.1665	-27.4159	95.7138	87.5647	-39.8352	61.6451	45.1179	-45.4423	46.0765	58.1564	-62.5986	40.1949	69.799	-77.9957	39.8032	56.7759	-30.3915	39.1321	88.7469	-32.1544	46.0792	109.795	-12.6416	34.2508	63.1762	-14.208	44.3336	81.1794	0.138657	61.5736	66.0015	18.275	25.9857	60.0267	0.424215	39.2348	72.9527	12.5516	60.3372	52.3968	19.4497	46.484	19.9196	5.37943	61.9916	10.1977	28.2241	80.2611	17.4602	2.25911	
62	0.516667	94.3914	40.8274	7.12806	89.8257	59.2869	-12.2056	89.3212	67.2017	-36.4612	93.5902	74.2958	-48.6292	59.1108	30.8937	-45.4093	48.3904	39.3535	-63.1842	41.1374	48.945	-85.8723	37.6707	47.8944	-39.502	37.5246	74.4526	-42.1549	42.1045	100.229	-22.0234	28.8553	51.1162	-19.2369	43.9922	74.2257	-8.48341	58.4442	58.7081	12.8341	19.128	49.9843	-4.58843	37.0892	67.5987	2.92599	54.6685	50.1202	12.9607	46.4133	13.8403	8.84074	57.6793	8.85025	34.7822	74.9587	13.9604	6.32308	
63	0.525	91.9215	38.8646	6.11928	84.6779	50.7893	-16.6692	85.0739	54.5279	-38.8931	87.5115	59.6121	-57.2609	60.0307	14.7022	-43.1095	53.2355	18.6428	-67.5586	37.4889	24.4554	-84.528	38.9029	28.2749	-37.5876	33.1599	52.8748	-46.3832	34.94	84.734	-29.2428	27.4704	34.0047	-20.9	34.2085	59.9299	-14.07	50.9022	54.4485	6.71772	18.1865	34.5713	-6.95984	30.4375	54.5827	-5.78491	50.2425	47.7392	11.8049	47.6854	3.84033	10.9094	61.2949	8.39414	39.6047	79.4124	10.2076	10.6602	
64	0.533333	93.392	38.5765	10.8508	84.169	42.3732	-20.9949	80.6797	43.6246	-39.5671	79.4936	41.7527	-59.147	71.0915	-0.787628	-39.2637	56.5674	-2.41038	-63.3706	41.422	-2.65062	-79.2842	46.688	7.63986	-36.4394	30.312	29.0652	-45.8414	29.9323	59.3461	-39.475	31.8434	13.4153	-19.4806	32.3221	43.806	-14.947	50.2868	44.8431	1.67333	23.689	14.4321	-5.69477	30.0218	38.4224	-5.27459	49.2265	39.0139	11.73	56.21	-5.59811	17.5234	69.6808	4.19182	43.8345	86.1803	6.73552	17.8423	
65	0.541667	99.6179	35.687	6.55081	86.0026	33.4635	-18.7235	83.2087	30.231	-40.2631	79.4433	27.6789	-57.3186	84.0531	-12.617	-35.003	66.8362	-20.3952	-53.8049	56.516	-24.8117	-70.0459	55.6271	-13.3081	-32.0857	39.5896	2.54478	-44.1753	31.0543	30.9457	-42.9893	45.827	-5.74593	-18.674	40.1055	19.9134	-19.3926	57.9098	31.0279	-0.490683	36.8378	-5.61308	-2.78136	37.5895	19.3278	-2.86227	57.0104	24.2018	7.72563	76.04	-13.026	24.1214	86.8999	3.60537	45.7553	100.521	0.807363	18.7382	
